<svg width="111" height="32" viewBox="0 0 111 32" fill="none" xmlns="http://www.w3.org/2000/svg">
<path d="M0.54 23.572H1.89V11.449H0.54V6.994H11.502C14.508 6.994 16.893 7.822 18.657 9.478C20.439 11.116 21.33 13.789 21.33 17.497C21.33 21.205 20.439 23.887 18.657 25.543C16.893 27.181 14.508 28 11.502 28H0.54V23.572ZM11.016 23.572C11.628 23.572 12.087 23.41 12.393 23.086C12.699 22.762 12.852 22.258 12.852 21.574V13.42C12.852 12.088 12.24 11.422 11.016 11.422H9.45V23.572H11.016ZM30.2322 28.378C27.6762 28.378 25.6782 27.712 24.2382 26.38C22.7982 25.03 22.0782 23.068 22.0782 20.494C22.0782 17.92 22.7982 15.967 24.2382 14.635C25.6782 13.285 27.6762 12.61 30.2322 12.61C32.7702 12.61 34.5972 13.276 35.7132 14.608C36.8472 15.922 37.4142 17.56 37.4142 19.522V21.466H28.6662V21.628C28.6662 22.294 28.8642 22.789 29.2602 23.113C29.6562 23.419 30.3132 23.572 31.2312 23.572C32.3292 23.572 33.3732 23.491 34.3632 23.329C35.3532 23.167 36.2172 22.96 36.9552 22.708V27.028C36.3252 27.37 35.3982 27.685 34.1742 27.973C32.9682 28.243 31.6542 28.378 30.2322 28.378ZM31.7982 18.496V18.172C31.7982 17.56 31.6632 17.119 31.3932 16.849C31.1412 16.579 30.7542 16.444 30.2322 16.444C29.7102 16.444 29.3142 16.588 29.0442 16.876C28.7922 17.146 28.6662 17.578 28.6662 18.172V18.496H31.7982ZM42.5374 28L39.1354 17.416H38.0014V12.988H46.3444V17.416H45.2104L46.6414 22.762H46.9114L48.3424 17.416H47.2084V12.988H55.0384V17.416H53.9044L50.5834 28H42.5374ZM66.3344 28.378C62.9324 28.378 60.3044 27.514 58.4504 25.786C56.6144 24.058 55.6964 21.295 55.6964 17.497C55.6964 10.243 59.2244 6.616 66.2804 6.616C67.9904 6.616 69.5744 6.823 71.0324 7.237C72.5084 7.651 73.6064 8.11 74.3264 8.614V15.364H67.8464V13.42C67.8464 12.736 67.6934 12.232 67.3874 11.908C67.0814 11.584 66.6224 11.422 66.0104 11.422C65.3984 11.422 64.9394 11.584 64.6334 11.908C64.3274 12.232 64.1744 12.736 64.1744 13.42V21.574C64.1744 22.258 64.3274 22.762 64.6334 23.086C64.9394 23.41 65.3984 23.572 66.0104 23.572C66.6224 23.572 67.0814 23.41 67.3874 23.086C67.6934 22.762 67.8464 22.258 67.8464 21.574V19.387H74.3264V26.38C73.5884 26.884 72.4904 27.343 71.0324 27.757C69.5924 28.171 68.0264 28.378 66.3344 28.378ZM83.3357 28.378C80.7797 28.378 78.7817 27.712 77.3417 26.38C75.9017 25.03 75.1817 23.068 75.1817 20.494C75.1817 17.92 75.9017 15.967 77.3417 14.635C78.7817 13.285 80.7797 12.61 83.3357 12.61C85.9277 12.61 87.9347 13.294 89.3567 14.662C90.7787 16.012 91.4897 17.956 91.4897 20.494C91.4897 23.068 90.7697 25.03 89.3297 26.38C87.8897 27.712 85.8917 28.378 83.3357 28.378ZM83.3357 23.572C83.8577 23.572 84.2447 23.437 84.4967 23.167C84.7667 22.879 84.9017 22.438 84.9017 21.844V19.144C84.9017 18.55 84.7667 18.118 84.4967 17.848C84.2447 17.56 83.8577 17.416 83.3357 17.416C82.8137 17.416 82.4177 17.56 82.1477 17.848C81.8957 18.118 81.7697 18.55 81.7697 19.144V21.844C81.7697 22.438 81.8957 22.879 82.1477 23.167C82.4177 23.437 82.8137 23.572 83.3357 23.572ZM110.277 23.572V28H101.745V23.572H102.879V19.144C102.879 18.55 102.753 18.118 102.501 17.848C102.249 17.56 101.871 17.416 101.367 17.416C100.287 17.416 99.7473 17.992 99.7473 19.144V23.572H100.881V28H92.3493V23.572H93.5373V17.416H92.3493V12.988H99.7473V15.094C101.043 13.438 102.663 12.61 104.607 12.61C106.101 12.61 107.217 13.078 107.955 14.014C108.711 14.95 109.089 16.237 109.089 17.875V23.572H110.277Z" fill="white"/>
</svg>
