<svg width="211" height="33" viewBox="0 0 211 33" fill="none" xmlns="http://www.w3.org/2000/svg">
<path d="M0.62 26.916H2.17V12.997H0.62V7.882H13.206C16.6573 7.882 19.3957 8.83266 21.421 10.734C23.467 12.6147 24.49 15.6837 24.49 19.941C24.49 24.1983 23.467 27.2777 21.421 29.179C19.3957 31.0597 16.6573 32 13.206 32H0.62V26.916ZM12.648 26.916C13.3507 26.916 13.8777 26.73 14.229 26.358C14.5803 25.986 14.756 25.4073 14.756 24.622V15.26C14.756 13.7307 14.0533 12.966 12.648 12.966H10.85V26.916H12.648ZM34.711 32.434C31.7764 32.434 29.4824 31.6693 27.829 30.14C26.1757 28.59 25.349 26.3373 25.349 23.382C25.349 20.4267 26.1757 18.1843 27.829 16.655C29.4824 15.105 31.7764 14.33 34.711 14.33C37.625 14.33 39.7227 15.0947 41.004 16.624C42.306 18.1327 42.957 20.0133 42.957 22.266V24.498H32.913V24.684C32.913 25.4487 33.1404 26.017 33.595 26.389C34.0497 26.7403 34.804 26.916 35.858 26.916C37.1187 26.916 38.3174 26.823 39.454 26.637C40.5907 26.451 41.5827 26.2133 42.43 25.924V30.884C41.7067 31.2767 40.6424 31.6383 39.237 31.969C37.8524 32.279 36.3437 32.434 34.711 32.434ZM36.509 21.088V20.716C36.509 20.0133 36.354 19.507 36.044 19.197C35.7547 18.887 35.3104 18.732 34.711 18.732C34.1117 18.732 33.657 18.8973 33.347 19.228C33.0577 19.538 32.913 20.034 32.913 20.716V21.088H36.509ZM48.8393 32L44.9333 19.848H43.6313V14.764H53.2103V19.848H51.9083L53.5513 25.986H53.8613L55.5043 19.848H54.2023V14.764H63.1923V19.848H61.8903L58.0773 32H48.8393ZM76.1617 32.434C72.2557 32.434 69.2383 31.442 67.1097 29.458C65.0017 27.474 63.9477 24.3017 63.9477 19.941C63.9477 11.6123 67.9983 7.448 76.0997 7.448C78.063 7.448 79.8817 7.68566 81.5557 8.161C83.2503 8.63633 84.511 9.16333 85.3377 9.742V17.492H77.8977V15.26C77.8977 14.4747 77.722 13.896 77.3707 13.524C77.0193 13.152 76.4923 12.966 75.7897 12.966C75.087 12.966 74.56 13.152 74.2087 13.524C73.8573 13.896 73.6817 14.4747 73.6817 15.26V24.622C73.6817 25.4073 73.8573 25.986 74.2087 26.358C74.56 26.73 75.087 26.916 75.7897 26.916C76.4923 26.916 77.0193 26.73 77.3707 26.358C77.722 25.986 77.8977 25.4073 77.8977 24.622V22.111H85.3377V30.14C84.4903 30.7187 83.2297 31.2457 81.5557 31.721C79.9023 32.1963 78.1043 32.434 76.1617 32.434ZM95.6817 32.434C92.7471 32.434 90.4531 31.6693 88.7997 30.14C87.1464 28.59 86.3197 26.3373 86.3197 23.382C86.3197 20.4267 87.1464 18.1843 88.7997 16.655C90.4531 15.105 92.7471 14.33 95.6817 14.33C98.6577 14.33 100.962 15.1153 102.595 16.686C104.227 18.236 105.044 20.468 105.044 23.382C105.044 26.3373 104.217 28.59 102.564 30.14C100.91 31.6693 98.6164 32.434 95.6817 32.434ZM95.6817 26.916C96.2811 26.916 96.7254 26.761 97.0147 26.451C97.3247 26.1203 97.4797 25.614 97.4797 24.932V21.832C97.4797 21.15 97.3247 20.654 97.0147 20.344C96.7254 20.0133 96.2811 19.848 95.6817 19.848C95.0824 19.848 94.6277 20.0133 94.3177 20.344C94.0284 20.654 93.8837 21.15 93.8837 21.832V24.932C93.8837 25.614 94.0284 26.1203 94.3177 26.451C94.6277 26.761 95.0824 26.916 95.6817 26.916ZM126.615 26.916V32H116.819V26.916H118.121V21.832C118.121 21.15 117.976 20.654 117.687 20.344C117.397 20.0133 116.963 19.848 116.385 19.848C115.145 19.848 114.525 20.5093 114.525 21.832V26.916H115.827V32H106.031V26.916H107.395V19.848H106.031V14.764H114.525V17.182C116.013 15.2807 117.873 14.33 120.105 14.33C121.82 14.33 123.101 14.8673 123.949 15.942C124.817 17.0167 125.251 18.4943 125.251 20.375V26.916H126.615ZM148.2 26.916V32H138.404V26.916H139.706V21.832C139.706 21.15 139.561 20.654 139.272 20.344C138.982 20.0133 138.548 19.848 137.97 19.848C136.73 19.848 136.11 20.5093 136.11 21.832V26.916H137.412V32H127.616V26.916H128.98V19.848H127.616V14.764H136.11V17.182C137.598 15.2807 139.458 14.33 141.69 14.33C143.405 14.33 144.686 14.8673 145.534 15.942C146.402 17.0167 146.836 18.4943 146.836 20.375V26.916H148.2ZM158.439 32.434C155.504 32.434 153.21 31.6693 151.557 30.14C149.903 28.59 149.077 26.3373 149.077 23.382C149.077 20.4267 149.903 18.1843 151.557 16.655C153.21 15.105 155.504 14.33 158.439 14.33C161.353 14.33 163.45 15.0947 164.732 16.624C166.034 18.1327 166.685 20.0133 166.685 22.266V24.498H156.641V24.684C156.641 25.4487 156.868 26.017 157.323 26.389C157.777 26.7403 158.532 26.916 159.586 26.916C160.846 26.916 162.045 26.823 163.182 26.637C164.318 26.451 165.31 26.2133 166.158 25.924V30.884C165.434 31.2767 164.37 31.6383 162.965 31.969C161.58 32.279 160.071 32.434 158.439 32.434ZM160.237 21.088V20.716C160.237 20.0133 160.082 19.507 159.772 19.197C159.482 18.887 159.038 18.732 158.439 18.732C157.839 18.732 157.385 18.8973 157.075 19.228C156.785 19.538 156.641 20.034 156.641 20.716V21.088H160.237ZM176.876 32.434C173.92 32.434 171.616 31.6693 169.963 30.14C168.309 28.59 167.483 26.3373 167.483 23.382C167.483 20.4267 168.309 18.1843 169.963 16.655C171.616 15.105 173.91 14.33 176.845 14.33C178.271 14.33 179.635 14.5263 180.937 14.919C182.239 15.3117 183.251 15.756 183.975 16.252V22.39H178.643V21.832C178.643 21.15 178.498 20.654 178.209 20.344C177.919 20.0133 177.465 19.848 176.845 19.848C175.646 19.848 175.047 20.5093 175.047 21.832V24.498C175.047 26.11 175.966 26.916 177.806 26.916C179.521 26.916 181.515 26.73 183.789 26.358V31.225C183.086 31.535 182.094 31.814 180.813 32.062C179.552 32.31 178.24 32.434 176.876 32.434ZM192.671 32.434C190.48 32.434 188.827 31.907 187.711 30.853C186.616 29.7783 186.068 27.9803 186.068 25.459V19.848H184.704V14.764C185.489 14.764 186.078 14.5677 186.471 14.175C186.864 13.7617 187.06 13.2037 187.06 12.501V11.106H193.632V14.764H197.817V19.848H193.632V24.932C193.632 25.614 193.777 26.1203 194.066 26.451C194.376 26.761 194.831 26.916 195.43 26.916C196.215 26.916 197.073 26.823 198.003 26.637V31.504C197.424 31.7313 196.639 31.938 195.647 32.124C194.676 32.3307 193.684 32.434 192.671 32.434Z" fill="#8541DD"/>
</svg>
